<svg xmlns="http://www.w3.org/2000/svg" viewBox="0 0 24 24" width="34" height="34" color="#ffffff" fill="black">
    <circle cx="12" cy="12" r="10" stroke="currentColor" stroke-width="1.5" fill="white" />
    <path d="M14.8031 11.8948C14.6516 12.5215 13.9357 12.9644 12.5039 13.8502C11.1197 14.7064 10.4277 15.1346 9.8699 14.9625C9.63932 14.8913 9.4293 14.7562 9.25982 14.57C8.85 14.1198 8.85 13.2465 8.85 12C8.85 10.2535 8.85 9.38018 9.25982 8.92995C9.4293 8.74381 9.63932 8.60868 9.8699 8.53753C10.4277 8.36544 11.1197 8.79357 12.5039 9.64983C13.9357 10.5356 14.6516 10.9785 14.8031 11.6052C14.8656 11.8639 14.8656 12.1361 14.8031 12.3948Z" stroke="black" stroke-width="1.5" stroke-linejoin="round" />
</svg>
